name rise31.4854peak64.571fall78.6902.mot
datacolumns 19
datarows 33
range 23.88659000000000 23.93991100000000
endheader
time	ground_force1_vx	ground_force1_vy	ground_force1_vz	ground_force1_px	ground_force1_py	ground_force1_pz	ground_force2_vx	ground_force2_vy	ground_force2_vz	ground_force2_px	ground_force2_py	ground_force2_pz	ground_torque1_x	ground_torque1_y	ground_torque1_z	ground_torque2_x	ground_torque2_y	ground_torque2_z	
23.88659000000000	9.95676900000000	692.31575799999996	45.75263100000000	0.21915100000000	0.00000000000000	0.09303200000000	0.00000000000000	0.00000000000000	0.00000000000000	0.00000000000000	0.00000000000000	0.00000000000000	0.00000000000000	17.36595900000000	0.00000000000000	0.00000000000000	0.00000000000000	0.00000000000000	
23.88824600000000	9.57467800000000	693.36913800000002	45.78623100000000	0.21838300000000	0.00000000000000	0.09298100000000	0.00000000000000	0.00000000000000	0.00000000000000	0.00000000000000	0.00000000000000	0.00000000000000	0.00000000000000	17.42851500000000	0.00000000000000	0.00000000000000	0.00000000000000	0.00000000000000	
23.88991000000000	9.18136900000000	694.44551300000001	45.82364600000000	0.21758700000000	0.00000000000000	0.09293100000000	0.00000000000000	0.00000000000000	0.00000000000000	0.00000000000000	0.00000000000000	0.00000000000000	0.00000000000000	17.49466900000000	0.00000000000000	0.00000000000000	0.00000000000000	0.00000000000000	
23.89158100000000	8.77634200000000	695.54348800000002	45.86463400000000	0.21676300000000	0.00000000000000	0.09288400000000	0.00000000000000	0.00000000000000	0.00000000000000	0.00000000000000	0.00000000000000	0.00000000000000	0.00000000000000	17.56433300000000	0.00000000000000	0.00000000000000	0.00000000000000	0.00000000000000	
23.89324300000000	8.35914500000000	696.66177800000003	45.90895900000000	0.21591100000000	0.00000000000000	0.09283800000000	0.00000000000000	0.00000000000000	0.00000000000000	0.00000000000000	0.00000000000000	0.00000000000000	0.00000000000000	17.63742400000000	0.00000000000000	0.00000000000000	0.00000000000000	0.00000000000000	
23.89491500000000	7.92937900000000	697.79921500000000	45.95640100000000	0.21503100000000	0.00000000000000	0.09279300000000	0.00000000000000	0.00000000000000	0.00000000000000	0.00000000000000	0.00000000000000	0.00000000000000	0.00000000000000	17.71386300000000	0.00000000000000	0.00000000000000	0.00000000000000	0.00000000000000	
23.89657300000000	7.48669100000000	698.95474200000001	46.00675000000000	0.21412300000000	0.00000000000000	0.09275100000000	0.00000000000000	0.00000000000000	0.00000000000000	0.00000000000000	0.00000000000000	0.00000000000000	0.00000000000000	17.79357200000000	0.00000000000000	0.00000000000000	0.00000000000000	0.00000000000000	
23.89824100000000	7.03078400000000	700.12741800000003	46.05981100000000	0.21318700000000	0.00000000000000	0.09270900000000	0.00000000000000	0.00000000000000	0.00000000000000	0.00000000000000	0.00000000000000	0.00000000000000	0.00000000000000	17.87647900000000	0.00000000000000	0.00000000000000	0.00000000000000	0.00000000000000	
23.89990600000000	6.56141000000000	701.31641400000001	46.11539900000000	0.21222400000000	0.00000000000000	0.09267000000000	0.00000000000000	0.00000000000000	0.00000000000000	0.00000000000000	0.00000000000000	0.00000000000000	0.00000000000000	17.96251400000000	0.00000000000000	0.00000000000000	0.00000000000000	0.00000000000000	
23.90157700000000	6.07837500000000	702.52101500000003	46.17334500000000	0.21123400000000	0.00000000000000	0.09263200000000	0.00000000000000	0.00000000000000	0.00000000000000	0.00000000000000	0.00000000000000	0.00000000000000	0.00000000000000	18.05161000000000	0.00000000000000	0.00000000000000	0.00000000000000	0.00000000000000	
23.90324600000000	5.58153500000000	703.74061300000005	46.23349400000000	0.21021900000000	0.00000000000000	0.09259500000000	0.00000000000000	0.00000000000000	0.00000000000000	0.00000000000000	0.00000000000000	0.00000000000000	0.00000000000000	18.14370100000000	0.00000000000000	0.00000000000000	0.00000000000000	0.00000000000000	
23.90491100000000	5.07079900000000	704.97470999999996	46.29570200000000	0.20917800000000	0.00000000000000	0.09256000000000	0.00000000000000	0.00000000000000	0.00000000000000	0.00000000000000	0.00000000000000	0.00000000000000	0.00000000000000	18.23872700000000	0.00000000000000	0.00000000000000	0.00000000000000	0.00000000000000	
23.90658100000000	4.54612700000000	706.22291199999995	46.35984200000000	0.20811300000000	0.00000000000000	0.09252600000000	0.00000000000000	0.00000000000000	0.00000000000000	0.00000000000000	0.00000000000000	0.00000000000000	0.00000000000000	18.33662600000000	0.00000000000000	0.00000000000000	0.00000000000000	0.00000000000000	
23.90824700000000	4.00753000000000	707.48492599999997	46.42579900000000	0.20702700000000	0.00000000000000	0.09249300000000	0.00000000000000	0.00000000000000	0.00000000000000	0.00000000000000	0.00000000000000	0.00000000000000	0.00000000000000	18.43734100000000	0.00000000000000	0.00000000000000	0.00000000000000	0.00000000000000	
23.90991000000000	3.45506700000000	708.76055499999995	46.49347400000000	0.20591900000000	0.00000000000000	0.09246100000000	0.00000000000000	0.00000000000000	0.00000000000000	0.00000000000000	0.00000000000000	0.00000000000000	0.00000000000000	18.54081200000000	0.00000000000000	0.00000000000000	0.00000000000000	0.00000000000000	
23.91157500000000	2.88884800000000	710.04969300000005	46.56278200000000	0.20479100000000	0.00000000000000	0.09243000000000	0.00000000000000	0.00000000000000	0.00000000000000	0.00000000000000	0.00000000000000	0.00000000000000	0.00000000000000	18.64698500000000	0.00000000000000	0.00000000000000	0.00000000000000	0.00000000000000	
23.91324700000000	2.30902700000000	711.35232399999995	46.63365200000000	0.20364500000000	0.00000000000000	0.09240000000000	0.00000000000000	0.00000000000000	0.00000000000000	0.00000000000000	0.00000000000000	0.00000000000000	0.00000000000000	18.75580100000000	0.00000000000000	0.00000000000000	0.00000000000000	0.00000000000000	
23.91490800000000	1.71580600000000	712.66850799999997	46.70602700000000	0.20248300000000	0.00000000000000	0.09237100000000	0.00000000000000	0.00000000000000	0.00000000000000	0.00000000000000	0.00000000000000	0.00000000000000	0.00000000000000	18.86720500000000	0.00000000000000	0.00000000000000	0.00000000000000	0.00000000000000	
23.91657800000000	1.10943000000000	713.99838399999999	46.77986500000000	0.20130700000000	0.00000000000000	0.09234300000000	0.00000000000000	0.00000000000000	0.00000000000000	0.00000000000000	0.00000000000000	0.00000000000000	0.00000000000000	18.98114000000000	0.00000000000000	0.00000000000000	0.00000000000000	0.00000000000000	
23.91824200000000	0.49018500000000	715.34215600000005	46.85513800000000	0.20011800000000	0.00000000000000	0.09231500000000	0.00000000000000	0.00000000000000	0.00000000000000	0.00000000000000	0.00000000000000	0.00000000000000	0.00000000000000	19.09754700000000	0.00000000000000	0.00000000000000	0.00000000000000	0.00000000000000	
23.91991500000000	-0.14160000000000	716.70008900000005	46.93183300000000	0.19891800000000	0.00000000000000	0.09228800000000	0.00000000000000	0.00000000000000	0.00000000000000	0.00000000000000	0.00000000000000	0.00000000000000	0.00000000000000	19.21636800000000	0.00000000000000	0.00000000000000	0.00000000000000	0.00000000000000	
23.92157900000000	-0.78556000000000	718.07250299999998	47.00995000000000	0.19770800000000	0.00000000000000	0.09226200000000	0.00000000000000	0.00000000000000	0.00000000000000	0.00000000000000	0.00000000000000	0.00000000000000	0.00000000000000	19.33754100000000	0.00000000000000	0.00000000000000	0.00000000000000	0.00000000000000	
23.92324600000000	-1.44129400000000	719.45976199999996	47.08950400000000	0.19649200000000	0.00000000000000	0.09223600000000	0.00000000000000	0.00000000000000	0.00000000000000	0.00000000000000	0.00000000000000	0.00000000000000	0.00000000000000	19.46100300000000	0.00000000000000	0.00000000000000	0.00000000000000	0.00000000000000	
23.92490800000000	-2.10836600000000	720.86226599999998	47.17052200000000	0.19527100000000	0.00000000000000	0.09221000000000	0.00000000000000	0.00000000000000	0.00000000000000	0.00000000000000	0.00000000000000	0.00000000000000	0.00000000000000	19.58668700000000	0.00000000000000	0.00000000000000	0.00000000000000	0.00000000000000	
23.92657400000000	-2.78630800000000	722.28044599999998	47.25304600000000	0.19404600000000	0.00000000000000	0.09218500000000	0.00000000000000	0.00000000000000	0.00000000000000	0.00000000000000	0.00000000000000	0.00000000000000	0.00000000000000	19.71452600000000	0.00000000000000	0.00000000000000	0.00000000000000	0.00000000000000	
23.92824200000000	-3.47462500000000	723.71475199999998	47.33713100000000	0.19282000000000	0.00000000000000	0.09216000000000	0.00000000000000	0.00000000000000	0.00000000000000	0.00000000000000	0.00000000000000	0.00000000000000	0.00000000000000	19.84444600000000	0.00000000000000	0.00000000000000	0.00000000000000	0.00000000000000	
23.92990700000000	-4.17279300000000	725.16564500000004	47.42284500000000	0.19159400000000	0.00000000000000	0.09213500000000	0.00000000000000	0.00000000000000	0.00000000000000	0.00000000000000	0.00000000000000	0.00000000000000	0.00000000000000	19.97637200000000	0.00000000000000	0.00000000000000	0.00000000000000	0.00000000000000	
23.93157300000000	-4.88026400000000	726.63358800000003	47.51026800000000	0.19037000000000	0.00000000000000	0.09211100000000	0.00000000000000	0.00000000000000	0.00000000000000	0.00000000000000	0.00000000000000	0.00000000000000	0.00000000000000	20.11022500000000	0.00000000000000	0.00000000000000	0.00000000000000	0.00000000000000	
23.93324400000000	-5.59646800000000	728.11903700000005	47.59949200000000	0.18915100000000	0.00000000000000	0.09208600000000	0.00000000000000	0.00000000000000	0.00000000000000	0.00000000000000	0.00000000000000	0.00000000000000	0.00000000000000	20.24591900000000	0.00000000000000	0.00000000000000	0.00000000000000	0.00000000000000	
23.93491200000000	-6.32081500000000	729.62243200000000	47.69062100000000	0.18793700000000	0.00000000000000	0.09206100000000	0.00000000000000	0.00000000000000	0.00000000000000	0.00000000000000	0.00000000000000	0.00000000000000	0.00000000000000	20.38336800000000	0.00000000000000	0.00000000000000	0.00000000000000	0.00000000000000	
23.93657800000000	-7.05269800000000	731.14418699999999	47.78377000000000	0.18672900000000	0.00000000000000	0.09203700000000	0.00000000000000	0.00000000000000	0.00000000000000	0.00000000000000	0.00000000000000	0.00000000000000	0.00000000000000	20.52247700000000	0.00000000000000	0.00000000000000	0.00000000000000	0.00000000000000	
23.93824700000000	-7.79149300000000	732.68468299999995	47.87906300000000	0.18553100000000	0.00000000000000	0.09201200000000	0.00000000000000	0.00000000000000	0.00000000000000	0.00000000000000	0.00000000000000	0.00000000000000	0.00000000000000	20.66314800000000	0.00000000000000	0.00000000000000	0.00000000000000	0.00000000000000	
23.93991100000000	-8.53656700000000	734.24425399999996	47.97663700000000	0.18434300000000	0.00000000000000	0.09198800000000	0.00000000000000	0.00000000000000	0.00000000000000	0.00000000000000	0.00000000000000	0.00000000000000	0.00000000000000	20.80527900000000	0.00000000000000	0.00000000000000	0.00000000000000	0.00000000000000	
